<svg xmlns="http://www.w3.org/2000/svg" viewBox="0 0 100 100">
  <!-- 花盘 -->
  <circle cx="50" cy="50" r="25" fill="#8B4513"/>
  <circle cx="50" cy="50" r="20" fill="#654321"/>
  
  <!-- 花瓣 -->
  <g fill="#F4A900">
    <ellipse cx="50" cy="15" rx="8" ry="15" transform="rotate(0 50 50)"/>
    <ellipse cx="50" cy="15" rx="8" ry="15" transform="rotate(30 50 50)"/>
    <ellipse cx="50" cy="15" rx="8" ry="15" transform="rotate(60 50 50)"/>
    <ellipse cx="50" cy="15" rx="8" ry="15" transform="rotate(90 50 50)"/>
    <ellipse cx="50" cy="15" rx="8" ry="15" transform="rotate(120 50 50)"/>
    <ellipse cx="50" cy="15" rx="8" ry="15" transform="rotate(150 50 50)"/>
    <ellipse cx="50" cy="15" rx="8" ry="15" transform="rotate(180 50 50)"/>
    <ellipse cx="50" cy="15" rx="8" ry="15" transform="rotate(210 50 50)"/>
    <ellipse cx="50" cy="15" rx="8" ry="15" transform="rotate(240 50 50)"/>
    <ellipse cx="50" cy="15" rx="8" ry="15" transform="rotate(270 50 50)"/>
    <ellipse cx="50" cy="15" rx="8" ry="15" transform="rotate(300 50 50)"/>
    <ellipse cx="50" cy="15" rx="8" ry="15" transform="rotate(330 50 50)"/>
  </g>
  
  <!-- 终端符号 -->
  <text x="50" y="58" text-anchor="middle" fill="white" font-family="monospace" font-size="20" font-weight="bold">&gt;_</text>
</svg>
